<svg width="779" height="1281" viewBox="0 0 779 1281" fill="none" xmlns="http://www.w3.org/2000/svg">
<g opacity="0.2">
<mask id="path-1-inside-1_23_977" fill="white">
<path fill-rule="evenodd" clip-rule="evenodd" d="M379.38 7.55382C359.925 29.1477 345.918 57.8767 338.828 90.7221C335.625 105.569 335.353 155.366 338.049 233.809C339.001 261.506 340.419 303.592 341.2 327.332C341.981 351.073 343.426 387.331 344.411 407.906C346.654 454.828 346.609 533.347 344.324 556.105C338.023 618.868 327.548 661.464 307.708 705.023C306.085 708.584 301.747 715.059 298.066 719.412C260.67 763.638 235.314 811.48 221.05 864.733C213.426 893.19 208.254 931.665 208.959 954.659L209.401 969.047L242.869 969.433L276.338 969.82L277.001 966.555C277.364 964.761 278.018 955.438 278.453 945.836C278.889 936.236 279.851 925.229 280.592 921.376C281.332 917.525 283.015 907.25 284.333 898.545C291.939 848.237 310.081 804.84 340.484 764.231C355.151 744.637 383.979 716.534 389.409 716.534C392.444 716.534 425.192 751.004 435.889 765.454C464.712 804.397 483.858 846.313 492.41 889.193C496.468 909.538 501.176 946.698 501.187 958.462C501.194 965.845 501.715 968.219 503.475 968.893C507.079 970.275 566.535 969.865 568.783 968.444C571.453 966.755 569.94 933.785 565.964 907.046C562.375 882.898 554.045 850.238 547.282 833.798C546.305 831.424 544.978 828.187 544.333 826.604C528.721 788.366 508.947 755.214 484.099 725.616C474.881 714.636 467.351 698.875 458.085 671.171C434.38 600.286 427.671 533.616 432.533 417.259C433.805 386.792 435.534 340.821 436.374 315.102C437.216 289.383 438.55 249.888 439.341 227.334C442.621 133.852 442.704 118.13 440.005 100.572C436.811 79.7842 429.623 57.7774 420.404 40.546C409.051 19.332 393.908 0 388.642 0C387.291 0 383.123 3.3985 379.38 7.55382ZM0.408172 128.415C0.0320807 129.405 -0.110577 338.051 0.0925986 592.076L0.461486 1053.94L107.714 1054.66L214.966 1055.38L218.119 1066.89C234.719 1127.48 263.797 1176.21 310.505 1221.7C333.206 1243.81 354.408 1260.22 379.992 1275.5L389.196 1281L398.004 1276.21C421.449 1263.45 446.291 1244.55 470.728 1220.87C514.692 1178.27 545.01 1127 560.089 1069.77L563.879 1055.38L671.231 1054.66L778.581 1053.94L778.944 591.431C779.152 325.491 778.766 128.383 778.035 127.654C775.339 124.962 746.737 142.928 721.663 163.06C704.246 177.043 674.845 206.65 660.69 224.456C631.027 261.772 606.739 305.174 592.098 347.027C575.784 393.662 568.486 430.067 563.162 491.358C561.068 515.476 554.682 572.259 551.673 593.515C550.383 602.627 548.743 617.1 544.415 657.542C543.611 665.06 542.312 677.038 541.531 684.16C540.749 691.283 540.108 699.297 540.106 701.97L540.102 706.831L545.854 705.911C552.383 704.869 570.33 708.146 577.748 711.734C586.442 715.94 600.327 726.481 605.537 732.83C608.339 736.244 612.431 742.876 614.633 747.569C618.129 755.024 618.634 757.831 618.634 769.801C618.634 782.328 618.237 784.307 613.984 792.931C608.169 804.727 598.977 813.955 583.691 823.344C577.152 827.361 571.803 831.133 571.803 831.73C571.803 832.326 574.335 841.776 577.43 852.73C580.525 863.684 583.901 877.088 584.932 882.517C585.962 887.945 587.645 892.709 588.672 893.103C591.956 894.361 614.493 884.341 626.982 876.069C655.003 857.511 672.199 833.292 680.881 800.158C685.952 780.808 686.205 755.398 681.495 738.836C672.515 707.269 653.759 681.899 625.064 662.505C619.15 658.508 613.497 653.557 612.503 651.502C610.644 647.663 610.797 645.971 618.669 583.443C622.531 552.766 626.802 514.607 629.459 487.042C632.387 456.671 637.311 425.437 640.913 414.381C641.559 412.403 643.216 406.575 644.598 401.432C651.768 374.726 668.286 334.594 681.414 311.977C690.881 295.67 710.451 266.182 711.807 266.182C712.475 266.182 712.86 430.153 712.66 630.564L712.297 994.946L580.449 995.666L448.601 996.385V1025.16V1053.94L468.774 1054.31C479.87 1054.52 489.71 1054.97 490.641 1055.31C491.918 1055.77 491.837 1058.05 490.315 1064.57C484.272 1090.44 468.835 1125.1 453.095 1148.15C442.765 1163.28 426.211 1182.68 424.104 1182.13C423.161 1181.88 422.663 1147.01 422.663 1081.15V980.558L426.677 972.952C434.533 958.065 448.839 946.428 467.738 939.55C472.715 937.739 477.073 935.796 477.42 935.235C479.23 932.311 470.789 880.01 468.047 877.151C466.15 875.174 446.947 883.163 433.083 891.696C426.133 895.972 413.497 904.879 405.004 911.484L389.562 923.497L383.057 918.503C362.865 902.998 354.307 896.847 344.331 890.669C332.527 883.358 312.647 875.384 310.927 877.269C308.716 879.689 302.458 914.549 301.958 927.215L301.623 935.743L310.989 939.304C332.324 947.418 347.983 961.371 354.113 977.731C357.028 985.51 357.1 988.074 357.1 1084.21C357.1 1145.28 356.581 1182.71 355.735 1182.71C353.676 1182.71 334.631 1160.34 326.949 1148.9C311.874 1126.44 302.275 1107.17 293.986 1082.71C290.395 1072.12 286.493 1058.35 286.493 1056.27C286.493 1055.26 294.066 1054.6 308.467 1054.34L330.442 1053.94V1025.16V996.385L198.594 995.666L66.7458 994.946L66.3826 630.564C66.1679 414.378 66.5483 266.182 67.3207 266.182C68.0369 266.182 69.8928 268.287 71.4462 270.858C72.9981 273.43 79.5617 283.76 86.0316 293.813C95.9699 309.256 115.018 344.507 115.018 347.456C115.018 347.949 116.241 351.07 117.736 354.389C119.23 357.709 122.838 367.224 125.753 375.533C132.727 395.412 132.011 393.134 136.016 408.16C143.076 434.656 145.983 453.327 150.98 504.307C152.915 524.057 155.493 546.302 161.882 598.401C166.959 639.794 167.604 648.26 166.004 652.424C165.515 653.696 159.479 658.591 152.59 663.303C141.121 671.146 126.485 684.552 119.606 693.513C118.087 695.491 114.277 701.318 111.139 706.462C89.4121 742.076 87.9481 784.527 107.048 825.165C117.724 847.883 134.131 865.78 156.323 878.925C166.316 884.843 185.925 893.509 189.324 893.509C190.437 893.509 191.85 890.184 192.841 885.236C195.797 870.472 201.535 847.746 204.425 839.358C205.977 834.853 207.084 831.074 206.884 830.959C206.683 830.846 200.035 826.49 192.109 821.28C176.922 811.299 170.752 804.898 164.325 792.459C160.794 785.625 160.408 783.39 160.408 769.77C160.408 756.015 160.784 753.89 164.609 746.03C169.929 735.096 184.752 720.307 196.757 713.956C207.002 708.536 224.939 704.595 233.295 705.928C238.537 706.766 238.939 706.584 238.916 703.409C238.887 699.592 238.406 694.927 231.132 628.046C229.928 616.967 227.644 597.543 226.056 584.882C219.973 536.385 217.919 517.755 213.675 472.653C205.655 387.395 182.079 317.636 140.249 255.391C121.491 227.478 110.364 213.903 87.7146 191.299C61.7053 165.342 35.8818 145.052 11.152 131.14C2.13444 126.067 1.37362 125.874 0.408172 128.415Z"/>
</mask>
<path fill-rule="evenodd" clip-rule="evenodd" d="M379.38 7.55382C359.925 29.1477 345.918 57.8767 338.828 90.7221C335.625 105.569 335.353 155.366 338.049 233.809C339.001 261.506 340.419 303.592 341.2 327.332C341.981 351.073 343.426 387.331 344.411 407.906C346.654 454.828 346.609 533.347 344.324 556.105C338.023 618.868 327.548 661.464 307.708 705.023C306.085 708.584 301.747 715.059 298.066 719.412C260.67 763.638 235.314 811.48 221.05 864.733C213.426 893.19 208.254 931.665 208.959 954.659L209.401 969.047L242.869 969.433L276.338 969.82L277.001 966.555C277.364 964.761 278.018 955.438 278.453 945.836C278.889 936.236 279.851 925.229 280.592 921.376C281.332 917.525 283.015 907.25 284.333 898.545C291.939 848.237 310.081 804.84 340.484 764.231C355.151 744.637 383.979 716.534 389.409 716.534C392.444 716.534 425.192 751.004 435.889 765.454C464.712 804.397 483.858 846.313 492.41 889.193C496.468 909.538 501.176 946.698 501.187 958.462C501.194 965.845 501.715 968.219 503.475 968.893C507.079 970.275 566.535 969.865 568.783 968.444C571.453 966.755 569.94 933.785 565.964 907.046C562.375 882.898 554.045 850.238 547.282 833.798C546.305 831.424 544.978 828.187 544.333 826.604C528.721 788.366 508.947 755.214 484.099 725.616C474.881 714.636 467.351 698.875 458.085 671.171C434.38 600.286 427.671 533.616 432.533 417.259C433.805 386.792 435.534 340.821 436.374 315.102C437.216 289.383 438.55 249.888 439.341 227.334C442.621 133.852 442.704 118.13 440.005 100.572C436.811 79.7842 429.623 57.7774 420.404 40.546C409.051 19.332 393.908 0 388.642 0C387.291 0 383.123 3.3985 379.38 7.55382ZM0.408172 128.415C0.0320807 129.405 -0.110577 338.051 0.0925986 592.076L0.461486 1053.94L107.714 1054.66L214.966 1055.38L218.119 1066.89C234.719 1127.48 263.797 1176.21 310.505 1221.7C333.206 1243.81 354.408 1260.22 379.992 1275.5L389.196 1281L398.004 1276.21C421.449 1263.45 446.291 1244.55 470.728 1220.87C514.692 1178.27 545.01 1127 560.089 1069.77L563.879 1055.38L671.231 1054.66L778.581 1053.94L778.944 591.431C779.152 325.491 778.766 128.383 778.035 127.654C775.339 124.962 746.737 142.928 721.663 163.06C704.246 177.043 674.845 206.65 660.69 224.456C631.027 261.772 606.739 305.174 592.098 347.027C575.784 393.662 568.486 430.067 563.162 491.358C561.068 515.476 554.682 572.259 551.673 593.515C550.383 602.627 548.743 617.1 544.415 657.542C543.611 665.06 542.312 677.038 541.531 684.16C540.749 691.283 540.108 699.297 540.106 701.97L540.102 706.831L545.854 705.911C552.383 704.869 570.33 708.146 577.748 711.734C586.442 715.94 600.327 726.481 605.537 732.83C608.339 736.244 612.431 742.876 614.633 747.569C618.129 755.024 618.634 757.831 618.634 769.801C618.634 782.328 618.237 784.307 613.984 792.931C608.169 804.727 598.977 813.955 583.691 823.344C577.152 827.361 571.803 831.133 571.803 831.73C571.803 832.326 574.335 841.776 577.43 852.73C580.525 863.684 583.901 877.088 584.932 882.517C585.962 887.945 587.645 892.709 588.672 893.103C591.956 894.361 614.493 884.341 626.982 876.069C655.003 857.511 672.199 833.292 680.881 800.158C685.952 780.808 686.205 755.398 681.495 738.836C672.515 707.269 653.759 681.899 625.064 662.505C619.15 658.508 613.497 653.557 612.503 651.502C610.644 647.663 610.797 645.971 618.669 583.443C622.531 552.766 626.802 514.607 629.459 487.042C632.387 456.671 637.311 425.437 640.913 414.381C641.559 412.403 643.216 406.575 644.598 401.432C651.768 374.726 668.286 334.594 681.414 311.977C690.881 295.67 710.451 266.182 711.807 266.182C712.475 266.182 712.86 430.153 712.66 630.564L712.297 994.946L580.449 995.666L448.601 996.385V1025.16V1053.94L468.774 1054.31C479.87 1054.52 489.71 1054.97 490.641 1055.31C491.918 1055.77 491.837 1058.05 490.315 1064.57C484.272 1090.44 468.835 1125.1 453.095 1148.15C442.765 1163.28 426.211 1182.68 424.104 1182.13C423.161 1181.88 422.663 1147.01 422.663 1081.15V980.558L426.677 972.952C434.533 958.065 448.839 946.428 467.738 939.55C472.715 937.739 477.073 935.796 477.42 935.235C479.23 932.311 470.789 880.01 468.047 877.151C466.15 875.174 446.947 883.163 433.083 891.696C426.133 895.972 413.497 904.879 405.004 911.484L389.562 923.497L383.057 918.503C362.865 902.998 354.307 896.847 344.331 890.669C332.527 883.358 312.647 875.384 310.927 877.269C308.716 879.689 302.458 914.549 301.958 927.215L301.623 935.743L310.989 939.304C332.324 947.418 347.983 961.371 354.113 977.731C357.028 985.51 357.1 988.074 357.1 1084.21C357.1 1145.28 356.581 1182.71 355.735 1182.71C353.676 1182.71 334.631 1160.34 326.949 1148.9C311.874 1126.44 302.275 1107.17 293.986 1082.71C290.395 1072.12 286.493 1058.35 286.493 1056.27C286.493 1055.26 294.066 1054.6 308.467 1054.34L330.442 1053.94V1025.16V996.385L198.594 995.666L66.7458 994.946L66.3826 630.564C66.1679 414.378 66.5483 266.182 67.3207 266.182C68.0369 266.182 69.8928 268.287 71.4462 270.858C72.9981 273.43 79.5617 283.76 86.0316 293.813C95.9699 309.256 115.018 344.507 115.018 347.456C115.018 347.949 116.241 351.07 117.736 354.389C119.23 357.709 122.838 367.224 125.753 375.533C132.727 395.412 132.011 393.134 136.016 408.16C143.076 434.656 145.983 453.327 150.98 504.307C152.915 524.057 155.493 546.302 161.882 598.401C166.959 639.794 167.604 648.26 166.004 652.424C165.515 653.696 159.479 658.591 152.59 663.303C141.121 671.146 126.485 684.552 119.606 693.513C118.087 695.491 114.277 701.318 111.139 706.462C89.4121 742.076 87.9481 784.527 107.048 825.165C117.724 847.883 134.131 865.78 156.323 878.925C166.316 884.843 185.925 893.509 189.324 893.509C190.437 893.509 191.85 890.184 192.841 885.236C195.797 870.472 201.535 847.746 204.425 839.358C205.977 834.853 207.084 831.074 206.884 830.959C206.683 830.846 200.035 826.49 192.109 821.28C176.922 811.299 170.752 804.898 164.325 792.459C160.794 785.625 160.408 783.39 160.408 769.77C160.408 756.015 160.784 753.89 164.609 746.03C169.929 735.096 184.752 720.307 196.757 713.956C207.002 708.536 224.939 704.595 233.295 705.928C238.537 706.766 238.939 706.584 238.916 703.409C238.887 699.592 238.406 694.927 231.132 628.046C229.928 616.967 227.644 597.543 226.056 584.882C219.973 536.385 217.919 517.755 213.675 472.653C205.655 387.395 182.079 317.636 140.249 255.391C121.491 227.478 110.364 213.903 87.7146 191.299C61.7053 165.342 35.8818 145.052 11.152 131.14C2.13444 126.067 1.37362 125.874 0.408172 128.415Z" stroke="black" stroke-width="2" mask="url(#path-1-inside-1_23_977)"/>
</g>
</svg>
