<svg width="60" height="60" viewBox="0 0 60 60" fill="none" xmlns="http://www.w3.org/2000/svg">
<rect x="15.5373" y="36.9749" width="10.2443" height="10.2443" transform="rotate(-45 15.5373 36.9749)" fill="#4C89FF"/>
<rect width="10.2443" height="10.2443" transform="matrix(0.707107 -0.707107 -0.707107 -0.707107 37.2689 29.7321)" fill="#4C89FF"/>
<rect width="10.2443" height="10.2443" transform="matrix(0.707107 -0.707107 -0.707107 -0.707107 8.2438 29.7319)" fill="#4C89FF"/>
<rect width="10.2443" height="10.2443" transform="matrix(-0.707107 0.707107 0.707107 0.707107 37.2697 29.7311)" fill="#4C89FF"/>
<rect x="51.7562" y="29.7311" width="10.2443" height="10.2443" transform="rotate(135 51.7562 29.7311)" fill="#FFCE20"/>
<rect x="22.7311" y="29.7311" width="10.2443" height="10.2443" transform="rotate(135 22.7311 29.7311)" fill="#FFCE20"/>
<rect x="30.025" y="36.9752" width="10.2443" height="10.2443" transform="rotate(-135 30.025 36.9752)" fill="#FFCE20"/>
<rect width="10.2443" height="10.2443" transform="matrix(0.707107 -0.707107 -0.707107 -0.707107 44.5123 22.4879)" fill="#4C89FF"/>
<rect width="10.2443" height="10.2443" transform="matrix(0.707107 -0.707107 -0.707107 -0.707107 15.4868 22.4876)" fill="#4C89FF"/>
<rect width="10.2443" height="10.2443" transform="matrix(0.707107 -0.707107 -0.707107 -0.707107 51.7562 29.7311)" fill="#4C89FF"/>
<rect width="10.2443" height="10.2443" transform="matrix(0.707107 -0.707107 -0.707107 -0.707107 22.7311 29.7311)" fill="#4C89FF"/>
<rect width="10.2443" height="10.2443" transform="matrix(-0.707107 0.707107 0.707107 0.707107 30.0259 36.9745)" fill="#4C89FF"/>
</svg>
